HIERARCHY
ROOT Hips
{
	OFFSET 0.00000 0.00000 0.00000
	CHANNELS 6 Xposition Yposition Zposition Zrotation Yrotation Xrotation 
	JOINT LHipJoint
	{
		OFFSET 0 0 0
		CHANNELS 3 Zrotation Yrotation Xrotation
		JOINT LeftUpLeg
		{
			OFFSET 1.29432 -1.88279 0.59910
			CHANNELS 3 Zrotation Yrotation Xrotation
			JOINT LeftLeg
			{
				OFFSET 2.63039 -7.22694 0.00000
				CHANNELS 3 Zrotation Yrotation Xrotation
				JOINT LeftFoot
				{
					OFFSET 2.70674 -7.43672 0.00000
					CHANNELS 3 Zrotation Yrotation Xrotation
					JOINT LeftToeBase
					{
						OFFSET 0.15066 -0.41394 2.09027
						CHANNELS 3 Zrotation Yrotation Xrotation
						End Site
						{
							OFFSET 0.00000 -0.00000 1.07518
						}
					}
				}
			}
		}
	}
	JOINT RHipJoint
	{
		OFFSET 0 0 0
		CHANNELS 3 Zrotation Yrotation Xrotation
		JOINT RightUpLeg
		{
			OFFSET -1.37068 -1.88279 0.59910
			CHANNELS 3 Zrotation Yrotation Xrotation
			JOINT RightLeg
			{
				OFFSET -2.57023 -7.06166 0.00000
				CHANNELS 3 Zrotation Yrotation Xrotation
				JOINT RightFoot
				{
					OFFSET -2.76461 -7.59570 0.00000
					CHANNELS 3 Zrotation Yrotation Xrotation
					JOINT RightToeBase
					{
						OFFSET -0.24175 -0.64785 2.19719
						CHANNELS 3 Zrotation Yrotation Xrotation
						End Site
						{
							OFFSET -0.00000 -0.00000 1.14803
						}
					}
				}
			}
		}
	}
	JOINT LowerBack
	{
		OFFSET 0 0 0
		CHANNELS 3 Zrotation Yrotation Xrotation
		JOINT Spine
		{
			OFFSET -0.03138 2.03983 -0.23106
			CHANNELS 3 Zrotation Yrotation Xrotation
			JOINT Spine1
			{
				OFFSET -0.00325 2.06238 -0.06878
				CHANNELS 3 Zrotation Yrotation Xrotation
				JOINT Neck
				{
					OFFSET 0 0 0
					CHANNELS 3 Zrotation Yrotation Xrotation
					JOINT Neck1
					{
						OFFSET -0.00002 1.75318 0.18090
						CHANNELS 3 Zrotation Yrotation Xrotation
						JOINT Head
						{
							OFFSET 0.08806 1.75856 -0.25387
							CHANNELS 3 Zrotation Yrotation Xrotation
							End Site
							{
								OFFSET 0.02554 1.78597 -0.10684
							}
						}
					}
				}
				JOINT LeftShoulder
				{
					OFFSET 0 0 0
					CHANNELS 3 Zrotation Yrotation Xrotation
					JOINT LeftArm
					{
						OFFSET 3.09657 1.33597 -0.04414
						CHANNELS 3 Zrotation Yrotation Xrotation
						JOINT LeftForeArm
						{
							OFFSET 5.34298 -0.00000 -0.00000
							CHANNELS 3 Zrotation Yrotation Xrotation
							JOINT LeftHand
							{
								OFFSET 3.67262 -0.00000 -0.00000
								CHANNELS 3 Zrotation Yrotation Xrotation
								JOINT LeftFingerBase
								{
									OFFSET 0 0 0
									CHANNELS 3 Zrotation Yrotation Xrotation
									JOINT LeftHandIndex1
									{
										OFFSET 0.59930 -0.00000 -0.00000
										CHANNELS 3 Zrotation Yrotation Xrotation
										End Site
										{
											OFFSET 0.48317 -0.00000 -0.00000
										}
									}
								}
								JOINT LThumb
								{
									OFFSET 0 0 0
									CHANNELS 3 Zrotation Yrotation Xrotation
									End Site
									{
										OFFSET 0.49055 -0.00000 0.49055
									}
								}
							}
						}
					}
				}
				JOINT RightShoulder
				{
					OFFSET 0 0 0
					CHANNELS 3 Zrotation Yrotation Xrotation
					JOINT RightArm
					{
						OFFSET -3.16460 1.32273 -0.23382
						CHANNELS 3 Zrotation Yrotation Xrotation
						JOINT RightForeArm
						{
							OFFSET -5.54967 -0.01834 0.03348
							CHANNELS 3 Zrotation Yrotation Xrotation
							JOINT RightHand
							{
								OFFSET -3.69401 -0.00000 0.00000
								CHANNELS 3 Zrotation Yrotation Xrotation
								JOINT RightFingerBase
								{
									OFFSET 0 0 0
									CHANNELS 3 Zrotation Yrotation Xrotation
									JOINT RightHandIndex1
									{
										OFFSET -0.63811 -0.00000 0.00000
										CHANNELS 3 Zrotation Yrotation Xrotation
										End Site
										{
											OFFSET -0.51446 -0.00000 0.00000
										}
									}
								}
								JOINT RThumb
								{
									OFFSET 0 0 0
									CHANNELS 3 Zrotation Yrotation Xrotation
									End Site
									{
										OFFSET -0.52232 -0.00000 0.52232
									}
								}
							}
						}
					}
				}
			}
		}
	}
}
MOTION
Frames: 11
Frame Time: .0083333
12.185 15.9816 6.7951 0 0 0 0 0 0 -21 0 0 0 0 0 0 0 0 0 0 0 0 0 0 21 0 0 0 0 0 0 0 0 0 0 0 0 0 0 0 0 0 0 0 0 0 0 -16 0 0 21 0 0 11 0 0 0 -8 0 0 0 0 0 0 0 0 0 0 0 0 0 0 0 0 0 0 0 0 8 0 0 0 0 0 0 0 0 0 0 0 0 0 0 0 0 0
12.1850 15.9816 6.7951 110.7290 -86.5145 -112.2560 0.0000 0.0000 0.0000 -17.8674 0.1288 -28.8095 13.7540 19.0377 71.4519 3.1931 -14.2198 -32.4121 0.0906 -1.9418 -5.3449 0.0000 0.0000 0.0000 16.6576 14.0745 -26.4446 -14.2720 -19.1945 73.0336 -3.2788 -2.1772 -35.0918 -1.8877 8.6280 -24.6385 -3.3470 -0.4307 11.0085 -0.7474 -1.0858 3.3929 1.2516 -0.5923 -2.5847 3.4619 3.0063 -12.3410 -1.8616 3.6278 6.7784 -0.8714 1.7741 4.1252 -0.0000 0.0000 0.0000 -60.0408 -1.5959 -10.7185 21.4301 -32.3270 -6.2784 -0.0000 0.0000 -5.6044 16.5683 29.0579 8.2222 -7.1250 0.0000 -0.0000 -16.3414 59.3298 -5.8158 -0.0000 0.0000 0.0000 76.1473 -1.3915 -14.2006 -37.5529 46.5514 -16.6402 0.0000 -0.0000 -11.4165 -46.9988 28.3697 -26.9999 7.1250 -0.0000 -0.0000 -9.2559 7.9488 -10.5768
12.1666 16.0410 6.7890 106.6480 -86.2705 -108.2730 0.0000 0.0000 0.0000 -18.3301 0.3968 -28.1398 13.3785 18.9146 70.2971 3.1453 -14.0604 -32.1551 0.0775 -1.7959 -4.9419 0.0000 0.0000 0.0000 16.4424 13.5301 -25.8913 -13.9604 -19.1020 72.0836 -3.2063 -2.6722 -34.8920 -2.0374 8.9435 -25.6187 -3.9631 -0.4861 10.7290 -0.6702 -1.2084 3.4706 1.6876 -0.6600 -2.3292 3.1970 3.1011 -12.6555 -1.7539 3.7838 7.2466 -0.7767 1.8492 4.3172 -0.0000 -0.0000 0.0000 -58.0839 -1.4913 -11.8097 21.8390 -32.7946 -6.4984 -0.0000 0.0000 -7.0677 16.4567 29.0441 8.1610 -7.1250 0.0000 -0.0000 -16.4511 59.2911 -5.8408 -0.0000 -0.0000 0.0000 74.7205 -1.5672 -15.7517 -39.2610 47.6259 -17.8913 0.0000 -0.0000 -12.5882 -48.7689 28.3486 -28.4491 7.1250 -0.0000 -0.0000 -10.2197 8.7723 -11.8345
12.1492 16.1240 6.7930 102.0740 -86.4583 -103.7390 0.0000 0.0000 0.0000 -18.2990 0.6262 -27.5333 12.9867 18.7773 69.0841 3.0399 -14.3991 -31.6404 0.0435 -1.3467 -3.7032 0.0000 0.0000 0.0000 16.5491 12.9781 -25.3514 -13.5950 -18.9866 70.9637 -3.2280 -1.4145 -34.5556 -1.6161 8.0160 -22.7627 -3.7240 -0.6069 10.4972 -0.6411 -1.3284 3.4687 1.5935 -0.7203 -2.2024 2.9601 3.0765 -12.8319 -1.6865 3.7838 7.5940 -0.7129 1.8459 4.4472 0.0000 -0.0000 0.0000 -56.0948 -1.5559 -13.0822 22.2301 -33.2361 -6.7115 -0.0000 0.0000 -8.2848 17.1606 29.2904 8.5910 -7.1250 0.0000 -0.0000 -15.8637 59.6909 -5.7779 0.0000 -0.0000 0.0000 73.1620 -1.7320 -17.4199 -40.4933 48.3594 -18.8070 0.0000 -0.0000 -13.9339 -51.5496 28.7198 -31.1815 7.1250 -0.0000 -0.0000 -11.5960 10.6632 -13.7996
12.1364 16.2141 6.8042 98.6069 -86.4677 -100.0710 0.0000 0.0000 0.0000 -18.4597 0.4803 -27.1420 12.5837 18.6266 67.8273 2.8884 -14.8554 -30.8960 0.0039 -0.4016 -1.1034 0.0000 0.0000 0.0000 16.5109 12.7205 -24.9656 -13.2068 -18.8556 69.7665 -3.1072 -1.8570 -34.0633 -1.7875 8.4087 -23.9626 -3.4919 -0.6736 10.2092 -0.7613 -1.3795 3.2873 1.3410 -0.7381 -2.2389 3.1405 3.0503 -12.8302 -1.7831 3.7304 7.7910 -0.7743 1.8195 4.5120 0.0000 0.0000 0.0000 -54.0039 -1.5372 -14.2344 22.6369 -33.6894 -6.9358 -0.0000 0.0000 -9.1995 18.1238 30.0332 9.3035 -7.1250 0.0000 -0.0000 -15.3304 60.6378 -5.9251 0.0000 0.0000 0.0000 71.3481 -1.6431 -19.1663 -40.8927 48.5900 -19.1061 0.0000 -0.0000 -15.0835 -53.8011 29.0996 -33.6045 7.1250 -0.0000 -0.0000 -12.6656 12.4043 -15.4274
12.1252 16.3168 6.8107 97.8730 -86.0249 -99.0670 0.0000 0.0000 0.0000 -19.1370 0.2552 -26.7120 12.1360 18.4475 66.4191 2.7375 -14.6374 -30.0704 0.0001 0.0738 0.2027 0.0000 0.0000 0.0000 16.0359 12.8176 -24.5941 -12.8053 -18.7107 68.5196 -2.8887 -2.8560 -33.2412 -2.1395 9.1509 -26.2685 -3.9727 -0.6364 10.1091 -0.8550 -1.3746 2.9172 1.5157 -0.7196 -2.5586 3.1686 3.0604 -12.6272 -1.7350 3.7431 7.9869 -0.7644 1.8312 4.5396 0.0000 0.0000 0.0000 -52.1175 -1.1475 -15.1347 23.1500 -34.2524 -7.2225 -0.0000 0.0000 -10.3522 18.5762 30.5349 9.6896 -7.1250 0.0000 -0.0000 -15.1900 61.2342 -6.0849 0.0000 0.0000 0.0000 69.5449 -1.8092 -20.9740 -41.8319 49.1186 -19.8134 0.0000 -0.0000 -16.2647 -54.1918 29.8560 -34.6072 7.1250 -0.0000 -0.0000 -12.6271 13.5412 -15.5646
12.1166 16.4449 6.8181 96.9868 -85.7180 -97.8650 0.0000 0.0000 0.0000 -19.6614 0.1920 -26.2946 11.6414 18.2349 64.8474 2.5042 -14.2596 -28.7511 0.0007 0.1750 0.4809 0.0000 0.0000 0.0000 15.5148 12.9348 -24.3086 -12.3891 -18.5503 67.2170 -2.8024 -1.3371 -32.1908 -1.6132 8.0092 -22.7420 -4.2502 -0.5568 9.9567 -0.8658 -1.2880 2.6082 1.6504 -0.6623 -2.7941 2.7490 2.9692 -12.6136 -1.4704 3.6670 8.1914 -0.6201 1.7975 4.5859 -0.0000 -0.0000 0.0000 -50.2897 -1.0339 -15.8490 23.5908 -34.7285 -7.4721 -0.0000 0.0000 -11.6164 18.5834 30.6893 9.7370 -7.1250 0.0000 -0.0000 -15.2945 61.3856 -6.1829 -0.0000 -0.0000 0.0000 68.0704 -2.3003 -23.0144 -43.4939 50.0090 -21.0785 0.0000 -0.0000 -17.2389 -54.5927 29.9720 -35.0989 7.1250 -0.0000 -0.0000 -12.7979 13.9233 -15.8467
12.1062 16.6052 6.8273 94.0666 -85.7443 -94.7091 0.0000 0.0000 0.0000 -19.7445 0.2981 -25.8115 11.1178 17.9922 63.1635 2.1844 -14.3230 -26.9361 0.0012 0.2196 0.6033 0.0000 0.0000 0.0000 15.2614 12.8535 -23.8709 -11.9272 -18.3597 65.7580 -2.7163 1.3442 -30.8632 -0.8355 5.8310 -16.2949 -4.1877 -0.4917 9.6665 -0.7438 -1.1719 2.5271 1.7238 -0.6024 -2.7235 2.4443 2.8730 -12.8182 -1.5637 3.5979 8.2947 -0.6021 1.7466 4.6460 0.0000 0.0000 0.0000 -48.5579 -1.3768 -16.6737 23.9554 -35.1171 -7.6809 -0.0000 0.0000 -12.6756 18.3792 30.9683 9.7018 -7.1250 0.0000 -0.0000 -15.7270 61.6046 -6.4443 0.0000 0.0000 0.0000 66.5203 -2.8219 -24.7900 -44.6851 50.6133 -21.9951 0.0000 -0.0000 -18.1425 -56.1328 29.1686 -35.9871 7.1250 -0.0000 -0.0000 -13.8622 13.9340 -17.2338
12.0897 16.7858 6.8330 91.1378 -85.8936 -91.7349 0.0000 0.0000 0.0000 -19.5978 0.7065 -25.1870 10.5812 17.7240 61.4139 1.9053 -14.1049 -25.2296 0.0105 -0.6618 -1.8188 0.0000 0.0000 0.0000 15.2986 12.6130 -23.0714 -11.4007 -18.1256 64.0760 -2.4769 2.2408 -29.2080 -0.8010 5.7124 -15.9521 -3.9990 -0.3961 9.4833 -0.7111 -1.0140 2.5017 1.6309 -0.5243 -2.6609 2.8454 2.7233 -12.8456 -2.0727 3.3827 8.2668 -0.8408 1.6212 4.6537 -0.0000 -0.0000 0.0000 -46.6582 -1.6746 -17.3415 24.4583 -35.6452 -7.9721 -0.0000 0.0000 -14.0209 18.6606 31.2152 9.9275 -7.1250 0.0000 -0.0000 -15.6004 61.9132 -6.5050 -0.0000 -0.0000 0.0000 65.2141 -3.5291 -26.3835 -45.7714 51.1408 -22.8378 0.0000 -0.0000 -19.2815 -57.1582 28.7263 -36.6711 7.1250 -0.0000 -0.0000 -14.5413 14.0734 -18.1518
12.0740 16.9737 6.8415 89.7921 -86.0923 -90.2808 0.0000 0.0000 0.0000 -19.3944 1.0373 -24.5541 10.0326 17.4281 59.5973 1.6068 -13.7416 -23.2696 0.0533 -1.4897 -4.0973 0.0000 0.0000 0.0000 15.3639 12.2637 -22.3220 -10.8367 -17.8542 62.2500 -2.1836 2.6075 -27.2805 -1.0266 6.4453 -18.0822 -3.5203 -0.3043 9.3598 -0.8655 -0.8448 2.3619 1.1824 -0.4368 -2.7572 3.3922 2.5246 -13.0128 -2.3661 3.0520 8.5892 -1.0427 1.4569 4.7862 -0.0000 -0.0000 0.0000 -44.5990 -1.7446 -17.6009 25.1249 -36.3314 -8.3638 -0.0000 0.0000 -15.9160 21.0628 31.4323 11.3561 -7.1250 0.0000 -0.0000 -13.0454 62.7391 -5.6718 -0.0000 -0.0000 0.0000 64.3720 -4.2463 -28.2242 -47.1704 51.7885 -23.9323 0.0000 -0.0000 -20.0747 -56.7032 28.6174 -36.1008 7.1250 -0.0000 -0.0000 -14.3392 13.6387 -17.8067
12.0598 17.1711 6.8474 88.3727 -86.2779 -88.6290 0.0000 0.0000 0.0000 -19.1994 1.0671 -23.8800 9.4742 17.1034 57.7161 1.2379 -13.7198 -20.7407 0.0748 -1.7643 -4.8546 0.0000 0.0000 0.0000 15.3495 11.9865 -21.7241 -10.2753 -17.5618 60.4047 -1.8871 3.6523 -25.0812 -0.9321 6.1501 -17.2206 -3.3721 -0.4121 9.1539 -0.7474 -0.9571 2.1323 1.2331 -0.4847 -2.8766 3.2564 2.6198 -13.2454 -2.3260 3.2015 9.2059 -0.9910 1.5263 5.0176 0.0000 0.0000 0.0000 -43.1242 -1.1997 -17.9874 25.8355 -37.0458 -8.7884 -0.0000 0.0000 -17.6776 23.8191 31.8275 13.1053 -7.1250 0.0000 -0.0000 -10.1040 63.8628 -4.6432 0.0000 0.0000 0.0000 63.0666 -4.5901 -29.5309 -48.4007 52.3298 -24.9025 0.0000 -0.0000 -20.4001 -56.0219 28.1810 -35.0201 7.1250 -0.0000 -0.0000 -14.1231 12.6627 -17.3458
